<?xml version="1.0" encoding="UTF-8" standalone="no"?>
<svg
   xmlns:dc="http://purl.org/dc/elements/1.1/"
   xmlns:cc="http://creativecommons.org/ns#"
   xmlns:rdf="http://www.w3.org/1999/02/22-rdf-syntax-ns#"
   xmlns:svg="http://www.w3.org/2000/svg"
   xmlns="http://www.w3.org/2000/svg"
   id="svg6481"
   version="1.1"
   viewBox="0 0 19.769064 19.76977"
   height="19.76977mm"
   width="19.769064mm">
  <defs
     id="defs6475" />
  <metadata
     id="metadata6478">
    <rdf:RDF>
      <cc:Work
         rdf:about="">
        <dc:format>image/svg+xml</dc:format>
        <dc:type
           rdf:resource="http://purl.org/dc/dcmitype/StillImage" />
        <dc:title></dc:title>
      </cc:Work>
    </rdf:RDF>
  </metadata>
  <g
     transform="translate(-53.714282,-46.827742)"
     id="layer1">
    <g
       id="g6337"
       transform="matrix(0.35277777,0,0,-0.35277777,36.615135,146.98547)">
      <g
         id="g288"
         transform="translate(101.67367,255.89303)">
        <path
           d="m 0,0 c 0,-13.908 -11.276,-25.187 -25.184,-25.187 -13.911,0 -25.185,11.279 -25.185,25.187 0,13.909 11.274,25.184 25.185,25.184 C -11.276,25.184 0,13.909 0,0"
           style="fill:#242e3c;fill-opacity:1;fill-rule:nonzero;stroke:none"
           id="path290" />
      </g>
      <g
         id="g292"
         transform="translate(81.888571,248.59413)">
        <path
           d="m 0,0 c 0,0.656 -0.125,1.23 -0.371,1.723 -0.245,0.492 -0.572,0.924 -0.982,1.298 -0.411,0.373 -0.885,0.697 -1.423,0.97 -0.538,0.275 -1.089,0.521 -1.653,0.739 l -0.028,-9.459 c 0.619,0.109 1.202,0.295 1.75,0.56 0.547,0.265 1.019,0.597 1.421,0.996 0.401,0.403 0.717,0.868 0.945,1.398 C -0.115,-1.248 0,-0.656 0,0 m -10.636,15.254 c 0,-0.693 0.115,-1.293 0.343,-1.803 0.227,-0.51 0.532,-0.957 0.916,-1.34 0.383,-0.382 0.824,-0.715 1.326,-1 0.501,-0.281 1.024,-0.541 1.572,-0.777 l -0.029,8.995 c -0.583,-0.075 -1.124,-0.215 -1.626,-0.424 -0.5,-0.211 -0.933,-0.489 -1.298,-0.835 -0.364,-0.348 -0.656,-0.752 -0.876,-1.216 -0.217,-0.465 -0.328,-0.998 -0.328,-1.6 m 9.624,0.356 c 0,1.093 -0.315,1.946 -0.944,2.556 -0.628,0.611 -1.435,0.999 -2.418,1.163 L -4.402,9.677 C -3.29,9.275 -2.225,8.844 -1.204,8.379 -0.184,7.913 0.718,7.367 1.503,6.738 2.286,6.11 2.912,5.369 3.376,4.512 3.84,3.654 4.072,2.633 4.072,1.448 4.072,0.155 3.844,-0.967 3.388,-1.915 2.934,-2.861 2.318,-3.663 1.544,-4.318 0.77,-4.978 -0.137,-5.496 -1.176,-5.876 -2.214,-6.26 -3.31,-6.522 -4.457,-6.67 v -3.143 l -1.968,-0.411 -0.028,3.418 h -0.218 c -0.676,0 -1.481,0.054 -2.419,0.164 -0.937,0.109 -1.836,0.329 -2.695,0.657 -0.856,0.327 -1.583,0.795 -2.186,1.408 -0.601,0.607 -0.901,1.416 -0.901,2.416 0,0.421 0.086,0.787 0.26,1.095 0.172,0.308 0.404,0.565 0.695,0.765 0.292,0.202 0.625,0.352 0.999,0.452 0.374,0.099 0.761,0.15 1.162,0.15 0.382,0 0.766,-0.028 1.148,-0.081 v -0.794 c 0,-1.365 0.352,-2.392 1.053,-3.076 0.701,-0.683 1.736,-1.071 3.102,-1.161 v 10.17 c -1.057,0.402 -2.076,0.836 -3.062,1.312 -0.984,0.474 -1.853,1.039 -2.61,1.694 -0.756,0.657 -1.362,1.423 -1.817,2.296 -0.457,0.876 -0.685,1.915 -0.685,3.119 0,1.201 0.219,2.249 0.656,3.142 0.439,0.892 1.025,1.64 1.765,2.243 0.738,0.6 1.598,1.068 2.583,1.407 0.983,0.337 2.023,0.559 3.115,0.67 v 3.334 l 2.16,0.247 -0.026,-3.5 c 0.656,-0.018 1.421,-0.077 2.296,-0.177 0.874,-0.101 1.704,-0.302 2.486,-0.602 0.783,-0.3 1.445,-0.725 1.983,-1.27 0.538,-0.548 0.808,-1.269 0.808,-2.161 0,-0.418 -0.092,-0.774 -0.274,-1.066 C 2.743,15.756 2.505,15.514 2.213,15.322 1.921,15.131 1.594,14.99 1.23,14.899 0.864,14.807 0.492,14.761 0.108,14.761 c -0.363,0 -0.737,0.029 -1.12,0.083 z"
           style="fill:#f26d40;fill-opacity:1;fill-rule:nonzero;stroke:none"
           id="path294" />
      </g>
    </g>
  </g>
</svg>
